<svg xmlns="http://www.w3.org/2000/svg" xmlns:svg="http://www.w3.org/2000/svg" id="svg80" width="768.065" height="268.891" version="1.1" viewBox="0 0 203.217 71.144"><defs id="defs74"><marker style="overflow:visible" id="marker5421" orient="auto" refX="0" refY="0"><path transform="matrix(0.8,0,0,0.8,10,0)" style="fill:#000;fill-opacity:1;fill-rule:evenodd;stroke:#000;stroke-width:1.00000003pt;stroke-opacity:1" id="path5419" d="M 0,0 5,-5 -12.5,0 5,5 Z"/></marker><marker style="overflow:visible" id="marker5339" orient="auto" refX="0" refY="0"><path transform="matrix(-0.8,0,0,-0.8,-10,0)" style="fill:#000;fill-opacity:1;fill-rule:evenodd;stroke:#000;stroke-width:1.00000003pt;stroke-opacity:1" id="path5337" d="M 0,0 5,-5 -12.5,0 5,5 Z"/></marker><marker id="marker5269" orient="auto" refX="0" refY="0" style="overflow:visible"><path id="path5267" d="M 0,0 5,-5 -12.5,0 5,5 Z" style="fill:#000;fill-opacity:1;fill-rule:evenodd;stroke:#000;stroke-width:1.00000003pt;stroke-opacity:1" transform="matrix(0.8,0,0,0.8,10,0)"/></marker><marker style="overflow:visible" id="marker5203" orient="auto" refX="0" refY="0"><path transform="matrix(-0.8,0,0,-0.8,-10,0)" style="fill:#000;fill-opacity:1;fill-rule:evenodd;stroke:#000;stroke-width:1.00000003pt;stroke-opacity:1" id="path5201" d="M 0,0 5,-5 -12.5,0 5,5 Z"/></marker><marker style="overflow:visible" id="marker5145" orient="auto" refX="0" refY="0"><path transform="matrix(0.8,0,0,0.8,10,0)" style="fill:#000;fill-opacity:1;fill-rule:evenodd;stroke:#000;stroke-width:1.00000003pt;stroke-opacity:1" id="path5143" d="M 0,0 5,-5 -12.5,0 5,5 Z"/></marker><marker id="marker5093" orient="auto" refX="0" refY="0" style="overflow:visible"><path id="path5091" d="M 0,0 5,-5 -12.5,0 5,5 Z" style="fill:#000;fill-opacity:1;fill-rule:evenodd;stroke:#000;stroke-width:1.00000003pt;stroke-opacity:1" transform="matrix(-0.8,0,0,-0.8,-10,0)"/></marker><marker style="overflow:visible" id="marker5059" orient="auto" refX="0" refY="0"><path transform="matrix(0.8,0,0,0.8,10,0)" style="fill:#000;fill-opacity:1;fill-rule:evenodd;stroke:#000;stroke-width:1.00000003pt;stroke-opacity:1" id="path5057" d="M 0,0 5,-5 -12.5,0 5,5 Z"/></marker><marker id="Arrow1Lend" orient="auto" refX="0" refY="0" style="overflow:visible"><path id="path4740" d="M 0,0 5,-5 -12.5,0 5,5 Z" style="fill:#000;fill-opacity:1;fill-rule:evenodd;stroke:#000;stroke-width:1.00000003pt;stroke-opacity:1" transform="matrix(-0.8,0,0,-0.8,-10,0)"/></marker><marker id="Arrow1Lstart" orient="auto" refX="0" refY="0" style="overflow:visible"><path id="path4737" d="M 0,0 5,-5 -12.5,0 5,5 Z" style="fill:#000;fill-opacity:1;fill-rule:evenodd;stroke:#000;stroke-width:1.00000003pt;stroke-opacity:1" transform="matrix(0.8,0,0,0.8,10,0)"/></marker></defs><metadata id="metadata77"/><g id="layer1" transform="translate(-5.0063813,-6.5164384)"><rect style="fill:#fff;stroke-width:.26458332" id="rect82" width="45.169" height="31.003" x="126.907" y="161.29"/><g id="g4631" style="fill:none;stroke:none"><g id="g4623" style="fill:none;stroke:none"><g id="g4626" style="fill:none;stroke:none"><path id="path4618" d="M 63.075608,30.532279 C 23.529018,65.01004 23.529018,65.01004 23.529018,65.01004" style="fill:none;fill-rule:evenodd;stroke:none;stroke-width:.26458332px;stroke-linecap:butt;stroke-linejoin:miter;stroke-opacity:1"/></g></g></g><path style="opacity:1;fill:none;stroke:#000;stroke-width:1.20728147;stroke-miterlimit:4;stroke-dasharray:none;stroke-opacity:1" id="rect4637" d="m 241.05664,88.101562 a 30.728104,30.728104 0 0 0 -20.23437,7.654297 L 220.6875,95.601562 68.078125,221.94336 68.25,222.13867 a 30.728104,30.728104 0 0 0 -8.992188,21.68945 30.728104,30.728104 0 0 0 30.728516,30.72852 30.728104,30.728104 0 0 0 18.767582,-6.41992 l 0.20312,0.23047 152.60742,-126.3418 -0.17968,-0.20312 a 30.728104,30.728104 0 0 0 10.40039,-22.99415 30.728104,30.728104 0 0 0 -30.72852,-30.726558 z" transform="scale(0.26458333)"/><path style="opacity:1;fill:none;stroke:#000;stroke-width:1.20728147;stroke-miterlimit:4;stroke-dasharray:none;stroke-opacity:1" id="rect4639" d="m 577.12891,87.029297 a 30.728104,30.728104 0 0 0 -30.72852,30.728513 30.728104,30.728104 0 0 0 9.08203,21.77735 l -0.0977,0.11718 148.72461,130.89063 0.2207,-0.26563 a 30.728104,30.728104 0 0 0 17.79883,5.70899 30.728104,30.728104 0 0 0 30.72851,-30.72852 30.728104,30.728104 0 0 0 -9.49023,-22.1582 l 0.17578,-0.21289 -148.72461,-130.890626 -0.33398,0.404297 a 30.728104,30.728104 0 0 0 -17.35547,-5.371094 z" transform="scale(0.26458333)"/><path style="fill:none;fill-rule:evenodd;stroke:#000;stroke-width:.26458332px;stroke-linecap:butt;stroke-linejoin:miter;stroke-opacity:1;marker-start:url(#marker5059);marker-end:url(#marker5093)" id="path4661" d="m 63.075608,30.532279 89.248792,-0.0055 v 0"/><text xml:space="preserve" style="font-style:normal;font-weight:400;font-size:10.58333302px;line-height:125%;font-family:sans-serif;letter-spacing:0;word-spacing:0;fill:#000;fill-opacity:1;stroke:none;stroke-width:.26458332px;stroke-linecap:butt;stroke-linejoin:miter;stroke-opacity:1" id="text4665" x="76.559" y="29.544"><tspan id="tspan4663" x="76.559" y="29.544" style="font-size:7.05555534px;stroke-width:.26458332px">2 x r1</tspan></text><path style="fill:none;fill-rule:evenodd;stroke:#000;stroke-width:.26458332px;stroke-linecap:butt;stroke-linejoin:miter;stroke-opacity:1;marker-start:url(#marker5145);marker-end:url(#marker5203)" id="path4667" d="M 23.529018,65.01004 H 191.06696"/><text xml:space="preserve" style="font-style:normal;font-weight:400;font-size:10.58333302px;line-height:125%;font-family:sans-serif;letter-spacing:0;word-spacing:0;fill:#000;fill-opacity:1;stroke:none;stroke-width:.26458332px;stroke-linecap:butt;stroke-linejoin:miter;stroke-opacity:1" id="text4673" x="70.053" y="72.653"><tspan id="tspan4671" x="70.053" y="72.653" style="font-size:7.05555534px;stroke-width:.26458332px">2 x r2</tspan></text><text xml:space="preserve" style="font-style:normal;font-weight:400;font-size:10.58333302px;line-height:125%;font-family:sans-serif;letter-spacing:0;word-spacing:0;fill:#000;fill-opacity:1;stroke:none;stroke-width:.26458332px;stroke-linecap:butt;stroke-linejoin:miter;stroke-opacity:1" id="text4689" x="50.044" y="-7.993" transform="rotate(50.133312)"><tspan id="tspan4687" x="50.044" y="-7.993" style="font-size:6.3499999px;stroke-width:.26458332px">thickness</tspan></text><path style="fill:none;fill-rule:evenodd;stroke:#000;stroke-width:.26499999;stroke-linecap:butt;stroke-linejoin:miter;stroke-miterlimit:4;stroke-dasharray:none;stroke-opacity:1;marker-start:url(#Arrow1Lstart);marker-end:url(#Arrow1Lend)" id="path4735" d="M 37.438541,42.735415 C 48.021874,55.170831 48.021874,55.170831 48.021874,55.170831"/><g id="g5508" transform="translate(68.79167)"><path id="path5259" d="M 132.68854,30.564582 V 64.828123" style="fill:none;fill-rule:evenodd;stroke:#000;stroke-width:.26458332px;stroke-linecap:butt;stroke-linejoin:miter;stroke-opacity:1;marker-start:url(#marker5269);marker-end:url(#marker5339)"/><text id="text5409" x="36.652" y="-134.607" transform="rotate(90)" style="font-style:normal;font-weight:400;font-size:10.58333302px;line-height:125%;font-family:sans-serif;letter-spacing:0;word-spacing:0;fill:#000;fill-opacity:1;stroke:none;stroke-width:.26458332px;stroke-linecap:butt;stroke-linejoin:miter;stroke-opacity:1" xml:space="preserve"><tspan style="font-size:6.3499999px;stroke-width:.26458332px" id="tspan5407" x="36.652" y="-134.607">length</tspan></text></g><path style="fill:none;fill-rule:evenodd;stroke:#000;stroke-width:.26458332px;stroke-linecap:butt;stroke-linejoin:miter;stroke-opacity:1;marker-start:url(#marker5421)" id="path5411" d="m 6.3499999,11.646875 c 0,66.013539 0,66.013539 0,66.013539"/><text xml:space="preserve" style="font-style:normal;font-weight:400;font-size:10.58333302px;line-height:125%;font-family:sans-serif;letter-spacing:0;word-spacing:0;fill:#000;fill-opacity:1;stroke:none;stroke-width:.26458332px;stroke-linecap:butt;stroke-linejoin:miter;stroke-opacity:1" id="text5491" x="12.965" y="14.557"><tspan id="tspan5489" x="12.965" y="14.557" style="stroke-width:.26458332px;font-size:7.05555556px">axis</tspan></text><circle style="opacity:1;fill:#100909;fill-opacity:1;stroke:#000;stroke-width:.26499999;stroke-miterlimit:4;stroke-dasharray:none;stroke-opacity:1" id="path5516" cx="108.611" cy="50.276" r="2.514"/><text xml:space="preserve" style="font-style:normal;font-weight:400;font-size:10.58333302px;line-height:125%;font-family:sans-serif;letter-spacing:0;word-spacing:0;fill:#000;fill-opacity:1;stroke:none;stroke-width:.26458332px;stroke-linecap:butt;stroke-linejoin:miter;stroke-opacity:1" id="text5530" x="113.109" y="52.393"><tspan id="tspan5528" x="113.109" y="52.393" style="font-size:7.05555534px;stroke-width:.26458332px">center</tspan></text></g></svg>