<svg xmlns="http://www.w3.org/2000/svg" xmlns:svg="http://www.w3.org/2000/svg" id="svg2" width="149.496" height="77.6" version="1.1" viewBox="0 0 149.496 77.6" xml:space="preserve"><metadata id="metadata8"/><g id="g10" transform="matrix(1.3333333,0,0,-1.3333333,0,77.6)"><g id="g12" transform="translate(42.918,28.131)"><g id="g14"><g id="g16"><g id="g18"><path id="path20" style="fill:#000;fill-opacity:1;fill-rule:nonzero;stroke:#000;stroke-width:.79701;stroke-linecap:butt;stroke-linejoin:miter;stroke-miterlimit:10;stroke-dasharray:none;stroke-opacity:1" d="M 4.22711,0 C 4.22711,2.3346 2.3346,4.22711 0,4.22711 -2.3346,4.22711 -4.22711,2.3346 -4.22711,0 c 0,-2.3346 1.89251,-4.22711 4.22711,-4.22711 2.3346,0 4.22711,1.89251 4.22711,4.22711 z"/></g><path id="path26" style="fill:none;stroke:#000;stroke-width:.79701;stroke-linecap:butt;stroke-linejoin:miter;stroke-miterlimit:10;stroke-dasharray:none;stroke-opacity:1" d="m 4.62563,0 h 23.0138"/><g id="g28" transform="translate(27.63943)"><g id="g30"><path id="path32" style="fill:none;stroke:#000;stroke-width:.6376;stroke-linecap:round;stroke-linejoin:round;stroke-miterlimit:10;stroke-dasharray:none;stroke-opacity:1" d="M -1.55415,2.0722 C -1.42464,1.29512 0,0.1295 0.38852,0 0,-0.1295 -1.42464,-1.29512 -1.55415,-2.0722"/></g></g><g id="g34"><g id="g36" transform="translate(32.066,-3.459)"><g id="g38"><g id="g40" transform="translate(-74.984,-24.672)"><text id="text44" style="font-variant:normal;font-weight:400;font-size:9.96259975px;font-family:CMR10;-inkscape-font-specification:CMR10;writing-mode:lr-tb;fill:#000;fill-opacity:1;fill-rule:nonzero;stroke:none" transform="matrix(1,0,0,-1,74.984,24.672)"><tspan id="tspan42" x="0 5.535 8.303 12.205 16.633 21.06 24.934 29.916" y="0">director</tspan></text></g></g></g></g><g id="g50"><path id="path52" style="fill:none;stroke:#00c;stroke-width:.79701;stroke-linecap:butt;stroke-linejoin:miter;stroke-miterlimit:10;stroke-dasharray:none;stroke-opacity:1" d="M 0,14.17339 H 41.81284"/><g id="g54" transform="translate(41.81284,14.17339)"><g id="g56"><path id="path58" style="fill:none;stroke:#00c;stroke-width:.6376;stroke-linecap:round;stroke-linejoin:round;stroke-miterlimit:10;stroke-dasharray:none;stroke-opacity:1" d="M -1.55415,2.0722 C -1.42464,1.29512 0,0.1295 0.38852,0 0,-0.1295 -1.42464,-1.29512 -1.55415,-2.0722"/></g></g><g id="g60"><g id="g62" transform="translate(-6.165,19.83)"><g id="g64"><g id="g66" transform="translate(-36.753,-47.961)"><text id="text70" style="font-variant:normal;font-weight:400;font-size:9.96259975px;font-family:CMR10;-inkscape-font-specification:CMR10;writing-mode:lr-tb;fill:#00c;fill-opacity:1;fill-rule:nonzero;stroke:none" transform="matrix(1,0,0,-1,36.753,47.961)"><tspan id="tspan68" x="0 5.535 9.438 12.205 17.463 20.231 25.766 34.065 37.11 42.091 45.993 50.421" y="0">drivingforce</tspan></text></g></g></g></g></g><g id="g76"><path id="path78" style="fill:none;stroke:#c03;stroke-width:.79701;stroke-linecap:butt;stroke-linejoin:miter;stroke-miterlimit:10;stroke-dasharray:none;stroke-opacity:1" d="M 0,-14.17339 H -41.81284"/><g id="g80" transform="rotate(180,-20.90642,-7.086695)"><g id="g82"><path id="path84" style="fill:none;stroke:#c03;stroke-width:.6376;stroke-linecap:round;stroke-linejoin:round;stroke-miterlimit:10;stroke-dasharray:none;stroke-opacity:1" d="M -1.55415,2.0722 C -1.42464,1.29512 0,0.1295 0.38852,0 0,-0.1295 -1.42464,-1.29512 -1.55415,-2.0722"/></g></g><g id="g86"><g id="g88" transform="translate(-36.909,-24.81)"><g id="g90"><g id="g92" transform="translate(-6.009,-3.321)"><text id="text96" style="font-variant:normal;font-weight:400;font-size:9.96259975px;font-family:CMR10;-inkscape-font-specification:CMR10;writing-mode:lr-tb;fill:#c03;fill-opacity:1;fill-rule:nonzero;stroke:none" transform="matrix(1,0,0,-1,6.009,3.321)"><tspan id="tspan94" x="0 3.045 6.947 9.715 14.142 18.016 20.784 25.765" y="0">friction</tspan></text></g></g></g></g></g></g></g></g></g></svg>